<svg height="53" viewBox="0 0 100 53" width="100" xmlns="http://www.w3.org/2000/svg"><g fill="none" fill-rule="evenodd" transform=""><g fill="#434343"><path d="m8.81636245 8.63828277h6.45790955v.52816432c0 1.20132091-.1383342 2.26454301-.4150067 3.18969821-.2699244.8561138-.7254151 1.6569824-1.3664856 2.4026299-1.4508438 1.6708026-3.2964243 2.5061914-5.53679705 2.5061914-2.18638784 0-4.05896045-.8077726-5.61777401-2.4233421-1.55881355-1.6224737-2.33820864-3.5694129-2.33820864-5.84087602 0-2.31979213.79289111-4.28744345 2.3786971-5.90301297 1.585806-1.62247367 3.51573669-2.43369833 5.78984997-2.43369833 1.22140802 0 2.36182163.25544947 3.42127503.76635607 1.0122165.5109066 2.0075479 1.33939136 2.986024 2.48547915l-1.6802712 1.64662993c-1.282141-1.74674824-2.8443052-2.62010927-4.68653937-2.62010927-1.6532871 0-3.04000303.58339136-4.1601894 1.75019157-1.12018636 1.14608778-1.68027114 2.58212804-1.68027114 4.30816385 0 1.78126892.62419087 3.24837742 1.87259133 4.40136932 1.16742314 1.0701422 2.4326749 1.6052053 3.79579325 1.6052053 1.16067503 0 2.20324253-.4004343 3.12773363-1.2013149.9244912-.8077848 1.4407139-1.7743504 1.5486837-2.8997257h-3.89701445z"/><path d="m20.4082293.66403718v13.67641342h4.8275245v2.2604789h-7.3050866v-15.93689232z"/><path d="m45.8228161 16.6009295v-15.93689232h2.3522277c1.0476929 0 1.8824551.08257374 2.5043115.24772371.6286157.16514997 1.1592135.44383636 1.5918093.83606754.4393551.40599367.7874543.91175786 1.044308 1.51730775.2636131.61243113.3954176 1.23173423.3954176 1.85792786 0 1.14228728-.4292097 2.10908822-1.2876419 2.90043182.831395.28901244 1.4870381.79477664 1.9669491 1.51730775.4866702.71564989.7300017 1.54826849.7300017 2.49788079 0 1.245506-.4325893 2.2983213-1.2977809 3.1584774-.5204667.5298561-1.1051382.8979974-1.7540319 1.1044348-.7097274.1995563-1.5985632.2993329-2.666534.2993329zm2.3623667-9.09352471h.7401406c.8787102 0 1.5225247-.19783293 1.9314629-.59350473s.6134042-.97884888.6134042-1.74954874c0-.7500561-.2095354-1.31947089-.6286126-1.70826144-.4190772-.38879056-1.0274058-.58318292-1.8250043-.58318292h-.8313908zm0 6.83304581h1.4600034c1.0679708 0 1.8520389-.2133155 2.3522277-.639953.5272261-.4610436.7908352-1.045941.7908352-1.7547096 0-.6881249-.2534702-1.2661411-.7604184-1.734066-.4934296-.46104366-1.3755062-.69156203-2.6462562-.69156203h-1.1963917z"/><path d="m66.8151512 12.8072984h-6.7263783l-1.750283 3.7936311h-2.554192l7.7745128-16.6009295 7.4997592 16.6009295h-2.5948963zm-.9667261-2.2154805-2.3303186-5.31108348-2.4422554 5.31108348z"/><path d="m75.5284284.66403718v13.67641342h4.8275245v2.2604789h-7.3050867v-15.93689232z"/></g><path d="m23.2434574 23.8909734-.8600918 10.1134762c-1.84606-1.4596843-3.7690103-2.1895155-5.7689087-2.1895155-1.8320747 0-3.3704349.7020281-4.6151269 2.1061054-1.0908536 1.2372562-1.6362723 2.6135093-1.6362723 4.1288006 0 1.5569965.5803814 2.8428896 1.7411616 3.8577177 1.0209271.8897123 2.2795855 1.3345618 3.7760129 1.3345618 2.0558396 0 3.9438271-.7993389 5.6640194-2.3980407l-1.2796488 10.3220015c-2.489384.8619088-4.664066 1.2928567-6.5241113 1.2928567-3.3984286 0-6.37026092-1.0565175-8.91558607-3.1695843-3.2166197-2.6691369-4.82490543-6.3182929-4.82490543-10.9475773 0-5.4911933 2.12573418-9.7659188 6.3772663-12.8243049 2.7411194-1.9601475 5.8807728-2.9402065 9.4190545-2.9402065 2.4614133 0 4.9437674.4378987 7.4471366 1.3137093z" fill="#658546"/><path d="m42.0276013 40.6244811 6.2157808 11.1704188h-11.238634l-2.5532837-6.9030678c-.5720501-1.4921857-.9417842-2.7681946-1.1092135-3.8280649l-.3139283.0627552c.0418573.7251744.0627857 1.4154743.0627857 2.0709204 0 1.3666748-.0697612 2.6357109-.2092856 3.8071464l-.5859995 4.7903107h-10.3805633l3.5159972-28.5535986h11.385134c3.0974416 0 5.3646791.3207454 6.8017804.9622458 1.8696269.8367396 3.3067067 2.1406394 4.3112823 3.9117384.8092415 1.4364031 1.2138562 2.9494847 1.2138562 4.53929 0 1.2411639-.2546282 2.4160682-.7638922 3.5247483-.5092641 1.1086801-1.2173398 2.0325663-2.1242484 2.7716863-.8650513.6972831-1.8068268 1.1714285-2.8253549 1.4224504-.3627635.0836739-.8301632.1673466-1.4022132.2510206zm-7.1784944-9.7270501-.6278566 5.1250049h.8789993c1.3254817 0 2.3439946-.3137727 3.055569-.9413274.5580976-.5020438.8371422-1.1365619.8371422-1.9035733 0-1.520077-1.1022262-2.2801042-3.3067117-2.2801042z" fill="#658546"/><path d="m71.7226687 23.2413013-.9319811 7.4260275h-8.5149176l-.4024463 3.137758h7.8159318l-.8896183 7.0913333h-7.7947504l-.4024464 3.2214317h8.8326385l-.9531625 7.6770481h-19.3386064l3.558473-28.5535986z" fill="#1c5100"/><path d="m25.8998526 8.89710276c0-2.25356238.8194858-4.1891084 2.4584822-5.80669613 1.6321385-1.61758772 3.5934185-2.42636945 5.8838987-2.42636945 2.2630493 0 4.2037564.81569439 5.8221796 2.44710765 1.6252808 1.63141326 2.4379091 3.59115361 2.4379091 5.87927983 0 2.30195174-.8160571 4.25477944-2.4481957 5.85854164-1.6389963 1.6106749-3.6174203 2.4160003-5.9353314 2.4160003-2.0504598 0-3.8917314-.7154607-5.52387-2.1464037-1.796724-1.5830239-2.6950725-3.6568232-2.6950725-6.22146014zm2.417336.0311073c0 1.76966864.5897555 3.22478444 1.7692843 4.36539124 1.172671 1.1406067 2.5270514 1.7109015 4.0631818 1.7109015 1.6664272 0 3.0722398-.5806638 4.2174799-1.7420088 1.1452401-1.1751706 1.7178515-2.6060921 1.7178515-4.29280754 0-1.70745371-.5657538-3.13837523-1.6972784-4.29280749-1.124667-1.16134503-2.5167643-1.74200884-4.1763338-1.74200884-1.6527118 0-3.0482379.58066381-4.1866203 1.74200884-1.1383823 1.14751949-1.707565 2.56461569-1.707565 4.25133109z" fill="#434343"/><path d="m73.9034191 23.2413013h9.6704935c5.0963547 0 9.0299574 1.2132543 11.8009262 3.6397993 1.5595402 1.3806205 2.7013293 3.123802 3.4254016 5.2295969.5430542 1.5758597.8145772 3.221423.8145772 4.9367394 0 2.2731428-.4525384 4.3858788-1.3576287 6.3382713-.9050903 1.9523926-2.1930841 3.6049287-3.8640201 4.9576578-1.9494253 1.5479684-4.1076852 2.5380955-6.4748444 2.970411-1.8519541.3207502-3.8848957.4811229-6.0988858.4811229h-11.4249675zm9.3154214 8.3882733-1.4411751 11.6724601h1.4620617c.8493924 0 1.7022532-.2022091 2.5586079-.6066332.8563546-.4044242 1.5630107-.9413241 2.1199894-1.6107159.9747126-1.1853812 1.4620616-2.6217627 1.4620616-4.3091878 0-1.3945661-.4177277-2.5729568-1.2531957-3.5352074-.9607882-1.0738159-2.1791607-1.6107158-3.6551541-1.6107158z" fill="#1c5100"/></g></svg>