<?xml version="1.0" encoding="UTF-8"?>
<svg width="31px" height="19px" viewBox="0 0 31 19" version="1.1" xmlns="http://www.w3.org/2000/svg" xmlns:xlink="http://www.w3.org/1999/xlink">
    <!-- Generator: Sketch 52 (66869) - http://www.bohemiancoding.com/sketch -->
    <title>Group 4</title>
    <desc>Created with Sketch.</desc>
    <g id="Page-1" stroke="none" stroke-width="1" fill="none" fill-rule="evenodd">
        <g id="Artboard" transform="translate(-25.000000, -190.000000)" fill-rule="nonzero">
            <g id="Group-4" transform="translate(25.000000, 190.000000)">
                <path d="M3.86719565,0.000325109614 C3.83691079,-0.000453924613 3.80660552,0.000167284261 3.77637974,0.00218668827 C3.49037306,0.0231278134 3.22848139,0.167863242 3.0612139,0.397425812 C1.07533103,3.03104731 -1.47393209e-12,6.22739229 -1.47393209e-12,9.50844271 C-1.47393209e-12,12.7897781 1.07501327,15.9782475 3.0612139,18.6119952 C3.26701558,18.8864741 3.6057996,19.0318973 3.94992591,18.9934753 C4.29405221,18.9550533 4.5912284,18.7386245 4.72949056,18.4257306 C4.86775272,18.1128368 4.82609096,17.7510241 4.62020172,17.476609 C2.88212343,15.1718917 1.93927445,12.3798628 1.93927445,9.50844271 C1.93927445,6.6372715 2.88240146,3.83555595 4.62020172,1.53093961 C4.84003097,1.24477498 4.87840022,0.861294235 4.71951684,0.538336414 C4.56063346,0.215378592 4.23134904,0.00752415599 3.86719565,0.000325109614 Z" id="Path" fill="#000000"></path>
                <path d="M27.1025307,0.00218668827 C26.7458745,0.0231030121 26.4298516,0.235758667 26.280278,0.555490571 C26.1307044,0.875222476 26.1718622,1.25012452 26.3873656,1.53093961 C28.1251584,3.83555595 29.0607197,6.6372715 29.0607197,9.50844271 C29.0607197,12.3798628 28.1254392,15.1718917 26.3873656,17.476609 C26.1812379,17.7510116 26.1394174,18.1129622 26.2776708,18.4260013 C26.4159242,18.7390403 26.7132263,18.9555615 27.0574908,18.9939339 C27.4017552,19.0323063 27.740627,18.8866943 27.9463476,18.6119952 C29.9325512,15.9782475 31,12.7897781 31,9.50844271 C31,6.22739229 29.9322316,3.03104731 27.9463476,0.397425812 C27.7523855,0.131906216 27.43395,-0.0172471891 27.1025307,0.00218668827 Z" id="Path" fill="#000000"></path>
                <path d="M7.09490342,2.81360338 C6.77541114,2.81691934 6.47812279,2.97525019 6.3002747,3.23680948 C5.00732423,5.07910131 4.31937757,7.26851984 4.31937757,9.50844271 C4.31938159,11.7487588 5.0069032,13.9301321 6.3002747,15.7726116 C6.60486794,16.2066066 7.20882764,16.3151145 7.64925643,16.0149707 C8.08968522,15.714827 8.19980169,15.11969 7.89520845,14.685695 C6.82575261,13.1622021 6.25865095,11.3609011 6.25865095,9.50844271 C6.25865095,7.65630182 6.82610409,5.84519504 7.89520845,4.32185368 C8.10668732,4.02915925 8.13347504,3.64424678 7.96452502,3.32584453 C7.79557499,3.00744227 7.45950559,2.80948425 7.09490342,2.81360338 Z" id="Path" fill="#000000"></path>
                <path d="M23.8767132,2.81360338 C23.5185772,2.82259112 23.1947093,3.0255995 23.0346532,3.34142741 C22.874597,3.65725532 22.9044833,4.03434075 23.1123578,4.32185368 C24.1814633,5.84519504 24.7489127,7.65630182 24.7489127,9.50844271 C24.7489127,11.3609011 24.1742463,13.1622021 23.1047923,14.685695 C22.8002111,15.1196888 22.9103306,15.7148146 23.3507527,16.0149544 C23.7911747,16.3150943 24.395125,16.2065944 24.6997224,15.7726116 C25.993099,13.9301321 26.6881828,11.7487588 26.6881927,9.50844271 C26.6881927,7.26851984 25.9926729,5.07910131 24.6997224,3.23680948 C24.5163029,2.96697282 24.2062453,2.80753565 23.8767132,2.81360338 Z" id="Path" fill="#000000"></path>
                <path d="M10.6196511,5.84315308 C10.2639428,5.84362616 9.93710512,6.03614771 9.7682633,6.34465731 C9.22061869,7.30965856 8.93957816,8.40279847 8.93957816,9.50844271 C8.93957816,10.6140292 9.22064798,11.6997914 9.7682633,12.6647637 C9.93826318,12.96316 10.256902,13.1495205 10.6041517,13.1536451 C10.9514013,13.1577697 11.2745063,12.9790317 11.451756,12.68476 C11.6290058,12.3904883 11.6334719,12.0253898 11.463472,11.7269935 C11.0774098,11.0466947 10.8769598,10.2878922 10.8769598,9.50844271 C10.8769598,8.72896437 11.0773772,7.9608864 11.463472,7.28055516 C11.6398272,6.9841265 11.6409079,6.61717613 11.4663015,6.31974389 C11.2916952,6.02231165 10.9683448,5.84029341 10.6196511,5.84315308 Z" id="Path" fill="#000000"></path>
                <path d="M20.3595347,5.84315308 C20.0159184,5.85021929 19.7018235,6.03615179 19.5341199,6.33176779 C19.3664163,6.6273838 19.3702116,6.98842575 19.5440935,7.28055516 C19.9301847,7.9608864 20.1306057,8.72896437 20.1306057,9.50844271 C20.1306021,10.2878922 19.9301554,11.0466947 19.5440935,11.7269935 C19.3698548,12.0243573 19.3711061,12.3910199 19.5473705,12.6872221 C19.723635,12.9834244 20.0477535,13.1635272 20.3961833,13.1588814 C20.744613,13.1542356 21.0636675,12.9655572 21.2317342,12.6647637 C21.779333,11.6997914 22.0679833,10.61404 22.0679833,9.50844271 C22.0679833,8.40279847 21.7793605,7.30965856 21.2317342,6.34465731 C21.0593971,6.02959015 20.7226868,5.83598581 20.3595347,5.84315308 Z" id="Path" fill="#000000"></path>
                <path d="M15.5047288,8.71796085 C15.9560438,8.71796085 16.2974654,9.06372383 16.2974654,9.50844271 C16.2974654,9.95316158 15.9560335,10.2896022 15.5047288,10.2896022 C15.0534098,10.2896022 14.7025317,9.95314715 14.7025317,9.50844271 C14.7025317,9.06371301 15.0534131,8.71796085 15.5047288,8.71796085 Z" id="Path" fill="#000000"></path>
                <path d="M15.5047288,6.80887947 C14.0063704,6.80889029 12.7727184,8.03196912 12.7727184,9.50844271 C12.7727184,10.9849055 14.0063704,12.19868 15.5047288,12.19868 C17.0030832,12.19868 18.2348441,10.9849055 18.2348471,9.50844271 C18.2348441,8.03196912 17.0030832,6.80889029 15.5047288,6.80887947 Z" id="Path" fill="#FEE148"></path>
            </g>
        </g>
    </g>
</svg>