<?xml version="1.0" encoding="UTF-8"?>
<svg width="58px" height="63px" viewBox="0 0 58 63" version="1.1" xmlns="http://www.w3.org/2000/svg" xmlns:xlink="http://www.w3.org/1999/xlink">
    <!-- Generator: Sketch 52 (66869) - http://www.bohemiancoding.com/sketch -->
    <title>Live Icon</title>
    <desc>Created with Sketch.</desc>
    <g id="Live-Icon" stroke="none" stroke-width="1" fill="none" fill-rule="evenodd">
        <path d="M29,24.73 C26.4638756,24.7010547 24.3447913,26.6540524 24.1671038,29.18411 C23.9894164,31.7141677 25.8147252,33.9441824 28.33,34.27 C28.313885,34.3592786 28.313885,34.4507214 28.33,34.54 L28.33,60.28 C28.2973458,60.5556351 28.4260383,60.8254953 28.6607753,60.9736154 C28.8955123,61.1217354 29.1944877,61.1217354 29.4292247,60.9736154 C29.6639617,60.8254953 29.7926542,60.5556351 29.76,60.28 L29.76,34.54 C29.7598651,34.4477107 29.7429219,34.3562176 29.71,34.27 C32.2355366,33.9459578 34.0661769,31.7026598 33.8771994,29.1634422 C33.688222,26.6242245 31.5456806,24.6766246 29,24.73 Z" id="Path" stroke="#FBE148" stroke-width="2" fill="#FBE148" fill-rule="nonzero"></path>
        <path d="M29.000029,0.800000002 L29.0001591,0.800000063 C39.800167,0.808589987 49.6352833,7.01907031 54.2854962,16.7666733 C58.9357091,26.5142763 57.5743506,38.0661715 50.7845351,46.4669603 C50.4674119,46.8529602 49.9002026,46.9153532 49.5013623,46.6031416 C49.1193977,46.2822942 49.0627177,45.7154942 49.3749482,45.3236713 C53.1667671,40.6697158 55.2256204,34.8438973 55.2000001,28.8401522 C55.1912387,17.3239769 47.6635806,7.16369296 36.6491242,3.80153295 C25.6346678,0.439372928 13.7161095,4.66370422 7.27748019,14.2118151 C0.838850863,23.759926 1.38989585,36.3929524 8.63751583,45.3467573 C8.9453532,45.7402026 8.88296017,46.3074119 8.4980788,46.6236093 C8.33533645,46.7593032 8.12952058,46.8324822 7.92078041,46.8299985 C7.64106081,46.83109 7.37638048,46.7034762 7.20456918,46.4858621 C0.402071117,38.0852547 -0.965926609,26.5225558 3.68843021,16.7664733 C8.34278704,7.01039081 18.1905803,0.7984352 29.000029,0.800000002 Z" id="Path" stroke="#000000" stroke-width="0.4" fill="#000000"></path>
        <path d="M28.999871,14.08 L29.0002582,14.0800002 C33.1588539,14.0853696 37.1449909,15.7425165 40.0817629,18.6868869 C43.0185348,21.6312572 44.6653762,25.6216629 44.6599982,29.7791574 C44.6695194,32.0391647 44.1818168,34.2736037 43.2325564,36.3216894 C43.0856453,36.6500008 42.7591387,36.8609743 42.3990005,36.8599975 C42.2703396,36.8593545 42.1430117,36.8338889 42.020765,36.783635 C41.7845942,36.6817319 41.6018682,36.4856133 41.5168962,36.2428363 C41.4319243,36.0000593 41.4524669,35.7327967 41.567817,35.5174811 C44.172746,29.7663896 42.5425638,22.9808986 37.6093731,19.0408049 C32.6761824,15.1007112 25.698194,15.0109359 20.6652704,18.8228106 C15.6323469,22.6346853 13.8281356,29.3759911 16.2840134,35.1916477 C16.4808588,35.6539467 16.2703828,36.1886697 15.8071508,36.3945204 C15.339211,36.5901731 14.8007968,36.3748074 14.5963511,35.9092027 C13.7561762,33.9610729 13.3251509,31.8611177 13.3300002,29.7397416 C13.3411715,21.0917823 20.3519062,14.0855794 28.999871,14.08 Z" id="Path" stroke="#000000" stroke-width="0.4" fill="#000000"></path>
    </g>
</svg>