<?xml version="1.0" encoding="UTF-8"?>
<svg width="16px" height="16px" viewBox="0 0 16 16" version="1.1" xmlns="http://www.w3.org/2000/svg" xmlns:xlink="http://www.w3.org/1999/xlink">
    <!-- Generator: Sketch 52 (66869) - http://www.bohemiancoding.com/sketch -->
    <title>Shape</title>
    <desc>Created with Sketch.</desc>
    <g id="Page-1" stroke="none" stroke-width="1" fill="none" fill-rule="evenodd">
        <g id="noun_New-Window_299638" fill="#FFFFFF" fill-rule="nonzero">
            <g id="Group">
                <g id="Shape">
                    <path d="M7.25910103,7.48912028 C6.91387332,7.83426672 6.91337337,8.39526407 7.25915913,8.74096842 C7.60424129,9.08596934 8.16554838,9.08669879 8.51130207,8.74102651 L14.3901094,2.86360323 L14.3901094,4.8291707 C14.3901094,5.27233333 14.7504957,5.6332905 15.1950547,5.6332905 C15.6387091,5.6332905 16,5.27327381 16,4.8291707 L16,0.804119808 C16,0.582644175 15.9099893,0.381700311 15.7644454,0.236082343 C15.6186798,0.0902151738 15.4176885,0 15.1956908,0 L11.1696921,0 C10.7264251,0 10.3653829,0.360301438 10.3653829,0.804755786 C10.3653829,1.24830575 10.7254844,1.60951157 11.1696921,1.60951157 L13.1400943,1.60951157 L7.25910103,7.48912028 Z M16,9.6 L16,5.79703014 L16,14.0059397 C16,15.1072288 15.2065575,16 14.2265873,16 L1.7734127,16 C0.79398392,16 0,15.1054862 0,14.0059397 L0,1.99406028 C0,0.8927712 0.79344248,0 1.7734127,0 L10.3132936,0 L6.4,0 C6.8418278,0 7.2,0.3581722 7.2,0.8 C7.2,1.2418278 6.8418278,1.6 6.4,1.6 L2.05555878,1.6 C1.80105744,1.6 1.6,1.83894734 1.6,2.1337038 L1.6,13.8662962 C1.6,14.1557327 1.80396062,14.4 2.05555878,14.4 L13.9444412,14.4 C14.1989426,14.4 14.4,14.1610527 14.4,13.8662962 L14.4,9.6 C14.4,9.1581722 14.7581722,8.8 15.2,8.8 C15.6418278,8.8 16,9.1581722 16,9.6 Z"></path>
                </g>
            </g>
        </g>
    </g>
</svg>